<svg width="100" height="100" viewBox="0 0 100 100" fill="none" xmlns="http://www.w3.org/2000/svg">
<path d="M50 98C76.5097 98 98 76.5097 98 50C98 23.4903 76.5097 2 50 2C23.4903 2 2 23.4903 2 50C2 76.5097 23.4903 98 50 98Z" fill="#302E31" stroke="white" stroke-width="3.47"/>
<path d="M24.9407 24.7148C26.4354 17.6143 31.3273 11.2092 37.9041 8C36.76 9.14329 35.3767 10.0191 34.3167 11.2627C29.982 15.8626 28.0253 22.5218 29.2211 28.6461C30.7294 37.993 39.657 45.6283 49.3321 45.4946C56.8329 45.8249 64.1435 41.5766 67.8124 35.1715C75.6666 35.4336 83.3034 39.4238 87.7876 45.8289C90.084 49.1718 91.8777 53.0898 92 57.1682C90.546 51.7526 86.8907 46.9387 81.9037 44.2243C77.0798 41.5499 71.1552 40.8679 65.8693 42.4458C59.2381 44.3179 53.7619 49.6532 51.8731 56.2188C50.2697 61.4472 50.9559 67.2104 53.4766 71.9975C49.9707 77.9747 43.6385 82.2403 36.7627 83.524C31.4767 84.6152 25.919 83.7728 21 81.5851C25.4027 82.8488 30.1858 83.0694 34.5613 81.5379C40.4316 79.6258 45.2827 74.9857 47.4161 69.2626C49.7805 63.0313 48.8836 55.6233 44.9022 50.2746C41.9263 46.0625 37.2383 43.0939 32.1426 42.0376C30.5256 41.7541 28.8949 41.6257 27.2643 41.4786C24.6689 36.3305 23.7177 30.3533 25.0222 24.7639L24.9407 24.7148Z" fill="#C4C2C4"/>
</svg>
