<?xml version="1.0" standalone="no"?>
<!DOCTYPE svg PUBLIC "-//W3C//DTD SVG 20010904//EN"
 "http://www.w3.org/TR/2001/REC-SVG-20010904/DTD/svg10.dtd">
<svg version="1.0" xmlns="http://www.w3.org/2000/svg"
 width="700.000000pt" height="700.000000pt" viewBox="0 0 700.000000 700.000000"
 preserveAspectRatio="xMidYMid meet">
<metadata>
Created by potrace 1.11, written by Peter Selinger 2001-2013
</metadata>
<g transform="translate(0.000000,700.000000) scale(0.100000,-0.100000)"
fill="#000000" stroke="none">
<path d="M3259 6976 c-2 -2 -39 -6 -81 -10 -243 -19 -548 -84 -808 -172 -95
-33 -144 -52 -295 -117 -60 -27 -257 -126 -305 -155 -19 -12 -48 -29 -65 -38
-80 -45 -268 -177 -387 -272 -217 -174 -423 -390 -641 -672 -7 -8 -49 -71 -93
-140 -114 -176 -191 -317 -281 -520 -90 -200 -202 -571 -229 -758 -3 -20 -7
-43 -9 -50 -3 -7 -7 -40 -11 -75 -3 -34 -8 -65 -10 -68 -10 -17 -19 -224 -19
-429 0 -231 6 -342 24 -464 5 -33 12 -83 16 -110 3 -27 8 -52 10 -55 1 -3 6
-23 9 -43 13 -80 91 -380 116 -443 4 -11 31 -81 60 -155 63 -161 136 -315 223
-465 58 -100 174 -283 188 -295 3 -3 24 -31 48 -62 164 -225 403 -467 666
-673 125 -99 340 -235 520 -330 138 -72 466 -208 530 -219 6 -1 15 -4 20 -7 8
-5 182 -53 234 -64 139 -31 206 -45 242 -50 24 -3 56 -8 70 -10 174 -29 520
-44 699 -31 25 2 81 7 125 10 44 3 91 8 105 10 14 3 47 7 73 11 200 25 532
112 744 196 43 17 83 32 88 33 44 12 282 130 403 200 326 188 655 459 887 731
33 39 62 72 65 75 35 33 204 270 280 395 133 216 285 547 345 750 10 33 20 65
21 70 43 141 92 375 119 565 27 189 27 710 1 850 -2 14 -7 50 -11 80 -3 30
-17 111 -31 179 -139 688 -464 1293 -958 1786 -97 96 -240 224 -311 278 -5 4
-32 25 -60 46 -265 204 -646 403 -990 516 -112 37 -327 94 -405 108 -85 16
-150 27 -185 31 -22 3 -56 8 -75 11 -19 3 -57 8 -85 11 -56 6 -580 15 -586 10z"/>
</g>
</svg>
